<?xml version="1.0" encoding="utf-8"?>
<!-- Generator: Adobe Illustrator 22.0.1, SVG Export Plug-In . SVG Version: 6.00 Build 0)  -->
<svg version="1.1" id="Layer_1" xmlns="http://www.w3.org/2000/svg" xmlns:xlink="http://www.w3.org/1999/xlink" x="0px" y="0px"
	 viewBox="0 0 770.6 267.9" style="enable-background:new 0 0 770.6 267.9;" xml:space="preserve">
<style type="text/css">
	.st0{fill:none;stroke:#FCE73B;stroke-width:3;stroke-linecap:round;stroke-linejoin:round;}
	.st1{fill:none;stroke:#FCE73B;stroke-width:3;stroke-linecap:round;stroke-linejoin:round;stroke-miterlimit:10;}
</style>
<g>
	<path class="st0" d="M51.7,149.5V173l16.4-23.5h23.3l-26.7,36.1l11.9,14.6h21.4v21.5H69.8l-18.1-21.5v21.5H28.4v-72.3H51.7z"/>
	<path class="st0" d="M183.9,186c0,7.9-1.6,14.7-4.9,20.2c-3.3,5.6-8,9.8-14.2,12.6s-13.6,4.2-22.2,4.2c-8.6,0-16-1.4-22.2-4.2
		c-6.2-2.8-10.8-7-14-12.5c-3.2-5.5-4.8-12.3-4.8-20.3c0-6,0.9-11.4,2.7-15.9c1.8-4.6,4.5-8.5,8-11.6c3.5-3.1,7.8-5.5,12.9-7.1
		c5.1-1.6,10.9-2.4,17.3-2.4c8.6,0,16,1.4,22.2,4.3c6.2,2.9,11,7.1,14.2,12.6C182.2,171.4,183.9,178.1,183.9,186z M127.1,186.2
		c0,4.6,1,8.7,3.1,12.1c2.1,3.4,6.1,5.2,12.2,5.2c4.7,0,8.2-0.9,10.5-2.7c2.3-1.8,3.8-3.9,4.4-6.2c0.6-2.3,1-5.1,1.2-8.4
		c-0.2-4.6-1.3-8.7-3.3-12.1c-2-3.5-6.3-5.2-12.8-5.2C132.2,168.9,127.1,174.7,127.1,186.2z"/>
	<path class="st0" d="M269.2,221.8h-7.9h-20.8L224,166.3l-16.3,55.5h-27.3l25.2-72.3h38.1l21.5,61"/>
	<path class="st0" d="M261.2,221.8h7.9h19.4l16.3-55.5l16.5,55.5h28.7l-25.5-72.3h-38.1l-21.3,61"/>
	<path class="st0" d="M350.6,202.9v-18h28.5v18H350.6z"/>
	<path class="st0" d="M385.7,221.8v-72.3H409v48.8h18.8v-48.8h23.3v48.8l22.2,0v43.6l-22.2-0.1v-20H385.7z"/>
	<path class="st0" d="M546.8,221.8h-67.5v-72.3h61.4V171h-38.1v8.3h24.6v12.6h-24.6v8.3h43.2"/>
	<path class="st0" d="M545.8,200.3 M545.8,221.8 M545.8,200.3v-50.8h23.3v24.9h18.8v-24.9h23.3v72.3h-23.3v-26h-18.8v26h-23.3"/>
	<path class="st0" d="M685.5,171h-22.7v50.8h-23.3V171h-22.7v-21.5h68.8 M685.5,171 M685.5,149.5"/>
	<path class="st0" d="M686.1,149.5 M686.1,171 M686.1,149.5h46.6c5.8,0.5,10.5,2,14.3,4.5c3.8,2.5,6.5,5.9,8,10.3
		c1.5,5.3,2,9.3,1.8,12c-0.3,2.7-0.8,5.2-1.6,7.5c-0.8,2.3-3,5-6.5,8.1s-8.3,5.1-14.3,6H712v23.9h-25.9V171 M712,167.5v13.3H730
		c1,0,2-0.4,3.1-1.1c1.1-0.7,1.7-2.5,1.8-5.4c-0.2-2.8-0.8-4.6-2-5.5c-1.2-0.9-2.2-1.3-3-1.3H712z"/>
</g>
<g>
	<path class="st0" d="M93.8,85.9c-2-1.1-4.1-2.5-6.2-4C100.4,71.1,102.5,65.8,94,66H76.5V44.5h39.1c9.1,0,14.6,4.5,16.3,13.4
		c1.4,7.3-1.6,15.2-9.1,23.7c5.2,6.5,7.7,12.9,7.6,19.2c-0.2,8.9-5.5,14.3-15.8,16H76.5V95.3h15.1C100.8,95.6,101.6,91,93.8,85.9z"
		/>
	<path class="st0" d="M138.1,116.8V44.5H187c7.8,0.1,13.8,1.4,17.9,4.1c4.1,2.7,6.6,7.1,7.4,13.4c0.3,4.8-0.7,8.6-3,11.3
		c-2.3,2.7-6.1,5-11.5,6.8v0.2c2.6,0.3,5,1,7.2,2.1s4.1,2.4,5.6,3.9c1.5,1.5,2.7,3.2,3.5,5c0.8,1.9,1.2,3.7,1.2,5.5
		c0,5.7-1.4,10-4.3,13c-2.9,2.9-6.6,4.9-11.2,5.8c-4.5,0.9-10.1,1.3-16.5,1.3H138.1z M162.9,62v11h17.4c1,0,2-0.5,3-1.5
		c1.1-1,1.6-2.4,1.7-4.1c-0.1-2-0.8-3.4-1.9-4.2c-1.1-0.8-2.1-1.2-2.9-1.2H162.9z M162.9,88.8v13.4h15.9c2.7,0.1,5.1-0.5,7.2-1.8
		c2.1-1.3,3.1-2.9,3.1-4.8c0.2-2.1-0.6-3.8-2.5-5c-1.9-1.2-4.5-1.8-7.8-1.8H162.9z"/>
	<path class="st0" d="M310.2,85.9c-2-1.1-4.1-2.5-6.2-4c12.8-10.8,14.9-16.1,6.4-15.9h-17.5V44.5H332c9.1,0,14.6,4.5,16.3,13.4
		c1.4,7.3-1.6,15.2-9.1,23.7c5.2,6.5,7.7,12.9,7.6,19.2c-0.2,8.9-5.5,14.3-15.8,16h-38.1V95.3H308C317.2,95.6,317.9,92.4,310.2,85.9
		z"/>
	<path class="st0" d="M444.8,44.5v50.8h14.9v21.5l-108.4,0l0-21.8l14.5,0.1V80.4c0.4-6.6,1.5-12.2,3.3-16.8
		c1.8-4.6,4.2-8.2,7.2-10.9c3-2.7,6.7-4.7,11-6.2s9.8-2.1,16.3-2H444.8z M420.9,98.9V62.5h-13.6c-3.1,0-5.6,0.7-7.4,2
		c-1.9,1.3-3.4,3-4.6,5.1c-1.2,2.1-2,5.8-2.3,11.1c0.1,4.9,0.8,8.5,2,10.8c1.2,2.3,2.8,4.1,4.8,5.5c2,1.3,4.5,2,7.6,2H420.9z"/>
	<path class="st0" d="M506.8,69.4V44.5h23.3v72.3h-23.3v-26H488v26h-23.3V44.5H488v24.9H506.8z"/>
	<g>
		<path class="st0" d="M561.9,44.5v23.9h22.4c6,0.9,10.7,2.9,14.3,6c3.6,3.1,5.8,5.8,6.5,8.1c0.8,2.3,1.3,4.8,1.6,7.5
			c0.3,2.7-0.3,6.7-1.8,12c-1.6,4.4-4.3,7.8-8,10.3c-3.8,2.5-8.5,4-14.3,4.5H536V44.5H561.9z M579.9,98.8c0.8,0,1.8-0.4,3-1.3
			c1.2-0.9,1.8-2.7,2-5.5c-0.1-2.9-0.7-4.7-1.8-5.4c-1.1-0.7-2.2-1.1-3.1-1.1h-18.1v13.3H579.9z"/>
		<path class="st0" d="M611.5,44.5h23.3v72.3h-23.3V44.5z"/>
	</g>
	<path class="st0" d="M685.5,116.8v-27l-21.3,27h-23.3V44.5h23.3v27l21.3-27h23.3v72.3H685.5z M687.3,24.8L673.1,34L658.7,25v3.1
		l14.2,15l14.4-15V24.8z"/>
	<g>
		<path class="st0" d="M219.8,116.8V44.5h61.4V66h-38.1v8.3h24.6V87h-24.6v8.3h44.2v21.5H219.8z"/>
		<rect x="228.3" y="27.3" class="st1" width="18.7" height="8.2"/>
		<rect x="252.6" y="27.3" class="st1" width="18.7" height="8.2"/>
	</g>
</g>
</svg>
